<?xml version="1.0" encoding="utf-8"?>
<!-- Generator: Adobe Illustrator 26.0.2, SVG Export Plug-In . SVG Version: 6.00 Build 0)  -->
<svg version="1.1" id="Calque_1" xmlns="http://www.w3.org/2000/svg" xmlns:xlink="http://www.w3.org/1999/xlink" x="0px" y="0px"
	 viewBox="0 0 235.2 204.4" style="enable-background:new 0 0 235.2 204.4;" xml:space="preserve">
<style type="text/css">
	.st0{fill:#FFFFFF;}
</style>
<g>
	<path class="st0" d="M30.1,68.1c-5.5,0-9.7-3.5-9.7-9.6h-2c-0.4,6.9,5.4,11.4,11.7,11.4c6.5,0,11.4-5.2,11.1-11.4
		c-0.4-8.1-6.1-9.4-11.1-10.8c-5.4-1.5-8.1-3.2-8.3-7.8C21.6,35.5,25,32,30.1,32c4.1-0.1,8,2.3,8,8h2c0-6.5-4.5-9.8-10-9.9
		c-5.6,0-10.3,3.5-10.3,9.8c0.2,6.5,4.5,8.2,10.2,9.8c6.2,1.4,9,3.9,9.2,9.1C39.4,63.8,35.8,68.1,30.1,68.1z"/>
	<polygon class="st0" points="54.4,69 56.4,69 56.4,33 66.1,33 66.1,31.1 56.4,31.1 56.4,16.1 54.4,16.1 54.4,31.1 46,31.1 46,33 
		54.4,33 	"/>
	<path class="st0" d="M89.2,69.9c6.7,0.1,13.3-2.6,15.9-9.2c-0.1,3.2-0.1,5.6-0.1,8.2h2V31.1h-2v21.8c0,9.9-6.4,15-15.4,15.2
		c-10.4,0.2-15.4-6.4-15.4-16.6V31.1h-2v20.4C72.2,62.8,77.9,69.7,89.2,69.9z"/>
	<path class="st0" d="M153.2,59.2V69h2V16.1h-2v15v10c-2-5.3-8.6-10.9-17.7-10.9c-12.2,0-19.9,9.4-19.9,19.9
		c0,10.2,7.5,19.9,19.9,19.9C143.5,69.9,149.8,66,153.2,59.2z M135.7,68.1c-12.2,0-18.1-9.4-18.2-18V50c0-10.6,8.1-18,18-18
		c5.1,0,9.6,1.9,12.8,5.2c3.2,3.2,5.1,7.7,5.1,12.7c0.1,5-1.8,9.6-5,12.9C145.2,66.1,140.7,68.1,135.7,68.1z"/>
	<rect x="166.6" y="31.1" class="st0" width="2" height="37.9"/>
	<rect x="166.6" y="16.1" class="st0" width="2" height="6.5"/>
	<path class="st0" d="M197.1,69.9c11.4,0,19.9-8.5,19.9-19.9c0-11.3-8.6-19.9-19.9-19.9s-19.9,8.6-19.9,19.8V50
		C177.1,61.4,185.7,69.9,197.1,69.9z M179.1,50c0-10.3,7.7-18,18-18c10.2,0,18,7.7,18,18s-7.7,18-18,18S179.1,60.3,179.1,50
		L179.1,50L179.1,50z"/>
	<polygon class="st0" points="37.1,81.8 18.4,81.8 18.4,154.9 58.8,154.9 58.8,138.5 37.1,138.5 	"/>
	<polygon class="st0" points="110.2,126.3 82.2,81.8 66.1,81.8 66.1,154.9 84,154.9 83.6,110.8 111.5,154.9 127.7,154.9 127.7,81.8 
		109.8,81.8 	"/>
	<polygon class="st0" points="198.4,85.5 143.9,85.5 143.9,104.2 217.1,104.2 217.1,91.6 217.1,85.5 217.1,81.8 198.4,81.8 	"/>
	<path class="st0" d="M179.7,111.5h-0.1c-18.8,0-37,15.4-37,38.4c0,6.9,1.6,13.2,4.4,18.6c1.5,2.9,3.4,5.6,5.6,8
		c4.7,5.1,10.7,8.8,17.4,10.7c3.3,1,6.9,1.5,10.5,1.5s7.1-0.5,10.5-1.5c0.1,0,0.3-0.1,0.4-0.1c6.5-1.9,12.4-5.6,16.9-10.6
		c6.2-6.7,10.1-15.9,10.1-26.5C218.4,129.9,203.6,111.5,179.7,111.5z M180.4,170c-9.4,0-21.4-6.4-21.4-19.7
		c0-12.5,10.5-20.1,21.6-20.1h0.1c10.3,0,21.3,7,21.3,20C202,163.6,189.9,170,180.4,170z"/>
</g>
</svg>
