<?xml version="1.0" encoding="utf-8"?>
<!-- Generator: Adobe Illustrator 26.0.2, SVG Export Plug-In . SVG Version: 6.00 Build 0)  -->
<svg version="1.1" id="Calque_1" xmlns="http://www.w3.org/2000/svg" xmlns:xlink="http://www.w3.org/1999/xlink" x="0px" y="0px"
	 viewBox="0 0 235.23 204.43" style="enable-background:new 0 0 235.23 204.43;" xml:space="preserve">
<g>
	<path d="M30.13,68.07c-5.5,0-9.66-3.5-9.66-9.58h-2c-0.43,6.94,5.37,11.44,11.66,11.44c6.51,0,11.44-5.15,11.09-11.37
		c-0.43-8.08-6.08-9.44-11.09-10.8c-5.36-1.5-8.08-3.21-8.29-7.79c-0.22-4.51,3.21-7.94,8.29-7.94c4.08-0.08,8.01,2.29,8.01,8.01h2
		c0-6.51-4.51-9.8-10.02-9.87c-5.65,0-10.3,3.51-10.3,9.8c0.22,6.51,4.51,8.15,10.23,9.8c6.15,1.36,9.02,3.87,9.16,9.09
		C39.36,63.78,35.78,68.07,30.13,68.07z"/>
	<polygon points="54.39,69 56.4,69 56.4,32.95 66.12,32.95 66.12,31.09 56.4,31.09 56.4,16.07 54.39,16.07 54.39,31.09 46.03,31.09 
		46.03,32.95 54.39,32.95 	"/>
	<path d="M89.16,69.93c6.73,0.14,13.31-2.57,15.88-9.16c-0.08,3.15-0.08,5.65-0.08,8.22h2V31.09h-2v21.82
		c0,9.94-6.37,15.02-15.38,15.16c-10.37,0.15-15.38-6.37-15.38-16.59V31.09h-2v20.38C72.22,62.85,77.87,69.65,89.16,69.93z"/>
	<path d="M153.21,59.2V69h2V16.07h-2v15.02V41.1c-2-5.29-8.58-10.94-17.74-10.94c-12.23,0-19.95,9.44-19.95,19.88
		c0,10.23,7.51,19.89,19.95,19.89C143.49,69.93,149.78,66,153.21,59.2z M135.69,68.07c-12.23,0-18.1-9.44-18.17-17.95v-0.08
		c0-10.65,8.08-18.02,17.96-18.02c5.08,0,9.59,1.93,12.8,5.15c3.22,3.22,5.15,7.65,5.15,12.73c0.14,5.01-1.79,9.59-5.01,12.88
		C145.2,66.07,140.7,68.07,135.69,68.07z"/>
	<rect x="166.61" y="31.09" width="2" height="37.91"/>
	<rect x="166.61" y="16.07" width="2" height="6.51"/>
	<path d="M197.09,69.93c11.37,0,19.95-8.51,19.95-19.89c0-11.3-8.58-19.88-19.95-19.88s-19.95,8.58-19.95,19.81v0.07
		C177.14,61.42,185.72,69.93,197.09,69.93z M179.14,50.04c0-10.3,7.73-18.02,17.96-18.02c10.23,0,17.96,7.72,17.96,18.02
		c0,10.3-7.73,18.03-17.96,18.03c-10.23,0-17.96-7.72-17.96-17.95V50.04z"/>
	<polygon points="37.11,81.78 18.44,81.78 18.44,154.88 58.75,154.88 58.75,138.48 37.11,138.48 	"/>
	<polygon points="110.24,126.33 82.19,81.78 66.09,81.78 66.09,154.88 83.97,154.88 83.57,110.83 111.53,154.88 127.73,154.88 
		127.73,81.78 109.85,81.78 	"/>
	<polygon points="198.35,85.48 143.9,85.48 143.9,104.18 217.05,104.18 217.05,91.62 217.05,85.48 217.05,81.78 198.35,81.78 	"/>
	<path d="M179.71,111.52h-0.11c-18.76,0-37.03,15.42-37.03,38.42c0,6.89,1.63,13.18,4.44,18.59c1.53,2.95,3.45,5.61,5.61,8
		c4.66,5.08,10.7,8.78,17.38,10.7c3.34,0.96,6.89,1.46,10.48,1.46s7.14-0.5,10.48-1.46c0.14-0.04,0.28-0.07,0.43-0.11
		c6.5-1.95,12.37-5.61,16.95-10.59c6.22-6.72,10.09-15.88,10.09-26.47C218.44,129.89,203.62,111.52,179.71,111.52z M180.38,170.02
		c-9.38,0-21.43-6.43-21.43-19.69c0-12.54,10.48-20.15,21.64-20.15h0.11c10.27,0,21.32,7.04,21.32,19.97
		C202.03,163.58,189.87,170.02,180.38,170.02z"/>
</g>
</svg>
