<?xml version="1.0" standalone="no"?>
<!DOCTYPE svg PUBLIC "-//W3C//DTD SVG 20010904//EN"
 "http://www.w3.org/TR/2001/REC-SVG-20010904/DTD/svg10.dtd">
<svg version="1.0" xmlns="http://www.w3.org/2000/svg"
 width="940.000000pt" height="940.000000pt" viewBox="0 0 940.000000 940.000000"
 preserveAspectRatio="xMidYMid meet">
<metadata>
Created by potrace 1.14, written by Peter Selinger 2001-2017
</metadata>
<g transform="translate(0.000000,940.000000) scale(0.100000,-0.100000)"
fill="#000000" stroke="none">
<path d="M2176 8131 c-2 -3 -3 -138 -2 -299 1 -285 1 -292 -19 -293 -11 0 -87
-1 -168 -1 l-148 -1 3 -36 3 -36 164 0 165 -1 0 -719 1 -720 36 -2 c28 -2 38
2 41 15 2 9 3 333 3 720 -1 702 -1 702 19 703 12 1 97 2 190 3 l170 1 7 26 c3
15 4 31 0 36 -3 6 -83 10 -196 10 l-190 0 -1 294 c-1 162 -2 297 -3 301 -1 9
-70 7 -75 -1z"/>
<path d="M6122 7656 c0 -265 -1 -488 -1 -496 -1 -13 -24 24 -57 90 -22 43
-110 129 -191 187 -43 31 -172 93 -193 93 -9 0 -20 3 -24 7 -3 4 -12 8 -19 9
-16 3 -55 11 -87 19 -59 14 -255 6 -330 -13 -94 -25 -171 -53 -188 -69 -7 -7
-18 -13 -24 -13 -27 0 -162 -115 -224 -191 -55 -68 -133 -233 -149 -319 -24
-126 -22 -304 5 -374 5 -15 12 -38 14 -53 7 -37 69 -164 107 -220 33 -48 140
-158 175 -180 123 -78 266 -135 351 -138 12 0 24 -3 27 -5 7 -7 175 -3 227 5
24 4 54 8 66 10 24 3 120 38 173 62 51 23 165 108 206 153 58 63 104 127 97
134 -4 3 -1 6 5 6 6 0 14 9 17 21 14 43 19 3 19 -174 l1 -182 38 -2 c28 -1 37
3 38 15 1 22 1 2073 0 2089 -1 8 -15 12 -39 11 l-39 -1 -1 -481z m-567 -168
c67 -13 96 -21 101 -29 3 -5 13 -9 23 -9 10 0 38 -11 62 -25 24 -14 51 -28 59
-32 55 -25 153 -120 209 -203 89 -131 122 -255 118 -440 -3 -96 -9 -140 -26
-190 -25 -74 -81 -190 -92 -190 -4 0 -10 -9 -14 -19 -6 -18 -79 -95 -140 -146
-16 -14 -64 -43 -105 -64 -66 -34 -105 -49 -185 -68 -11 -3 -63 -6 -115 -8
-81 -4 -127 0 -231 18 -24 5 -78 26 -154 62 -105 50 -217 162 -278 278 -23 43
-65 151 -72 187 -29 143 -21 295 23 420 8 25 19 49 24 55 4 5 8 15 8 21 0 22
81 135 134 188 69 69 191 147 251 161 6 2 34 10 63 18 28 9 52 13 52 9 0 -3 5
-1 10 4 10 10 225 11 275 2z"/>
<path d="M6659 8118 c-3 -106 -1 -226 4 -235 3 -5 16 -9 29 -7 13 1 28 3 34 3
7 1 10 44 10 128 l-1 128 -37 2 c-33 3 -38 1 -39 -19z"/>
<path d="M1117 7565 c-32 -6 -59 -11 -60 -11 -1 0 -28 -12 -59 -27 -63 -31
-145 -108 -154 -144 -4 -13 -9 -23 -13 -23 -13 0 -35 -104 -36 -170 -2 -128
51 -232 152 -297 66 -42 207 -94 322 -119 13 -3 37 -12 52 -20 16 -8 29 -12
29 -10 0 10 97 -52 126 -81 32 -30 71 -103 81 -150 7 -32 7 -145 0 -183 -7
-41 -56 -130 -91 -165 -96 -95 -240 -126 -398 -85 -27 7 -48 16 -48 21 0 5 -8
9 -18 9 -25 0 -119 92 -136 135 -8 19 -14 37 -13 39 1 1 -3 9 -10 17 -6 8 -15
42 -18 76 -7 58 -9 61 -36 65 -42 6 -52 -4 -51 -55 1 -52 36 -162 58 -184 7
-8 14 -19 14 -24 0 -14 98 -105 129 -120 14 -7 32 -18 40 -23 7 -6 18 -11 25
-13 6 -1 36 -10 66 -18 60 -17 161 -22 225 -12 58 10 174 70 222 116 46 44 84
105 108 171 17 48 29 217 15 225 -4 2 -7 16 -7 30 0 45 -61 151 -111 196 -66
58 -204 118 -331 144 -9 2 -29 9 -46 15 -16 6 -38 13 -48 15 -25 5 -117 59
-145 85 -54 51 -80 125 -75 220 4 84 5 90 15 90 4 0 7 3 6 8 -8 27 70 119 125
147 87 45 241 56 317 22 112 -49 173 -138 183 -267 2 -22 7 -25 42 -25 36 0
40 2 38 25 -5 94 -51 201 -105 252 -30 28 -111 80 -133 85 -5 1 -28 7 -51 12
-66 16 -135 19 -197 6z"/>
<path d="M7827 7575 c-1 -2 -27 -5 -57 -8 -30 -4 -73 -11 -95 -17 -22 -6 -47
-12 -56 -14 -87 -21 -237 -114 -316 -195 -73 -75 -103 -119 -163 -242 -14 -29
-49 -163 -55 -214 -12 -92 -5 -202 20 -315 9 -46 66 -184 77 -188 4 -2 8 -8 8
-12 0 -27 103 -150 172 -205 24 -19 49 -40 55 -45 27 -22 152 -79 218 -99 120
-37 294 -44 424 -17 131 28 286 110 371 196 74 74 132 150 129 166 0 4 3 10 8
13 11 7 38 64 59 123 43 122 58 301 34 427 -22 122 -94 282 -159 355 -78 87
-168 166 -189 166 -6 0 -12 4 -14 8 -8 19 -161 81 -243 98 -62 13 -219 26
-228 19z m206 -89 c86 -20 247 -89 247 -107 0 -5 6 -9 14 -9 13 0 120 -100
157 -147 56 -70 118 -219 135 -325 11 -70 5 -219 -11 -283 -9 -33 -17 -65 -18
-72 -2 -7 -6 -16 -10 -19 -4 -4 -7 -15 -7 -23 0 -28 -87 -166 -137 -218 -26
-27 -73 -68 -103 -90 -57 -42 -180 -101 -228 -108 -15 -3 -47 -9 -72 -14 -45
-10 -222 -8 -270 2 -24 6 -69 18 -119 33 -14 4 -59 27 -100 50 -201 113 -331
323 -348 557 -7 104 -7 94 1 152 17 121 29 161 79 260 91 182 258 307 478 359
54 13 256 14 312 2z"/>
<path d="M2887 7531 c-7 -14 0 -919 7 -961 4 -25 10 -58 12 -74 3 -16 9 -37
15 -47 5 -11 6 -19 2 -19 -4 0 -2 -5 5 -12 7 -7 12 -20 12 -30 0 -16 46 -114
60 -128 3 -3 18 -23 34 -44 90 -120 238 -197 426 -223 94 -12 271 -4 320 15
14 5 30 10 35 11 40 5 128 46 185 84 61 42 121 108 162 178 l35 58 -1 -157 -1
-157 37 -1 c26 -1 37 4 40 15 2 9 3 349 3 756 l-1 740 -24 2 c-59 4 -55 35
-56 -484 -1 -396 -4 -490 -17 -550 -46 -213 -193 -363 -408 -419 -68 -18 -268
-25 -346 -12 -130 22 -264 101 -328 192 -53 77 -99 179 -110 248 -3 18 -8 47
-12 63 -3 17 -7 239 -7 495 l-1 465 -38 1 c-21 1 -39 -1 -40 -5z"/>
<path d="M6659 7512 c-1 -35 -1 -1475 0 -1484 1 -4 18 -6 40 -5 l38 1 -1 756
-1 755 -37 2 c-35 2 -38 0 -39 -25z"/>
<path d="M765 5510 l-29 -5 -1 -1445 c0 -795 1 -1451 3 -1457 3 -10 173 -13
807 -13 l802 0 0 328 0 328 -431 0 -431 -1 0 1127 c-1 620 -3 1130 -7 1133 -7
7 -673 12 -713 5z"/>
<path d="M2658 5512 c-15 -3 -16 -132 -16 -1463 l0 -1459 353 0 c273 0 354 3
357 13 2 6 3 98 2 202 -1 105 -5 470 -7 812 -3 342 -8 627 -12 633 -3 5 -2 10
4 10 9 0 8 31 -3 48 -2 4 -1 13 3 20 7 12 90 -107 142 -205 7 -13 16 -23 21
-23 4 0 8 -5 8 -10 0 -12 52 -94 63 -98 4 -2 7 -7 7 -12 0 -5 31 -57 70 -117
38 -59 79 -124 90 -143 11 -19 38 -62 60 -95 21 -33 64 -100 95 -150 31 -49
94 -148 141 -220 47 -71 87 -138 91 -147 3 -10 9 -18 14 -18 5 0 9 -5 9 -11 0
-5 18 -37 40 -69 22 -32 40 -64 40 -69 0 -6 5 -11 10 -11 6 0 10 -7 10 -15 0
-8 3 -15 8 -15 4 0 12 -9 17 -20 6 -11 48 -81 95 -155 l85 -135 325 3 325 2 0
1457 0 1458 -40 0 c-57 1 -516 1 -602 0 l-73 0 4 -561 c2 -308 7 -563 10 -566
3 -3 1 -14 -4 -24 -7 -11 -7 -20 0 -24 5 -3 6 -15 2 -28 -5 -12 -7 -33 -5 -47
2 -14 3 -53 3 -87 0 -74 0 -47 3 -261 1 -94 1 -172 0 -172 -3 0 -25 35 -78
120 -12 19 -51 80 -87 135 -35 55 -67 107 -71 115 -4 8 -47 78 -97 155 -50 77
-95 149 -99 160 -5 12 -16 27 -25 34 -9 7 -16 17 -16 21 0 5 -30 55 -66 112
-37 56 -74 116 -83 131 -9 15 -47 77 -86 137 -38 60 -79 124 -90 142 -11 18
-27 44 -36 58 -9 14 -34 53 -55 87 -22 34 -81 130 -133 213 -72 114 -99 150
-115 151 -106 2 -596 3 -608 1z"/>
<path d="M7960 5510 c-35 -5 -35 -5 -33 -55 1 -27 0 -59 -2 -70 -4 -20 -9 -20
-1087 -20 l-1083 0 0 -375 0 -374 1458 -1 c1288 0 1457 2 1458 15 0 8 2 210 2
448 l2 432 -45 0 c-421 4 -642 4 -670 0z"/>
<path d="M7137 4324 c-1 -1 -42 -5 -91 -9 -48 -3 -98 -10 -110 -14 -11 -4 -28
-7 -36 -6 -8 1 -21 -3 -27 -8 -7 -5 -13 -7 -13 -4 0 3 -15 1 -32 -5 -18 -5
-40 -11 -48 -13 -8 -1 -22 -5 -30 -8 -8 -4 -37 -14 -65 -23 -76 -25 -312 -147
-335 -173 -3 -4 -31 -26 -63 -49 -101 -75 -211 -189 -315 -327 -85 -112 -214
-408 -237 -541 -3 -21 -9 -50 -11 -64 -3 -14 -7 -36 -9 -50 -21 -118 -21 -370
1 -495 22 -129 75 -320 102 -370 5 -11 24 -49 41 -85 33 -70 72 -142 82 -150
3 -3 21 -27 39 -55 66 -97 145 -183 255 -280 163 -143 427 -273 650 -320 86
-19 129 -25 203 -30 457 -34 890 126 1202 446 94 96 109 114 182 224 132 199
223 448 246 675 8 82 8 345 -1 385 -3 17 -8 50 -11 75 -7 56 -40 182 -72 277
-26 74 -110 254 -124 263 -4 3 -10 15 -14 28 -4 12 -12 22 -17 22 -5 0 -9 5
-9 10 0 35 -177 237 -279 320 -24 19 -48 40 -55 45 -22 21 -103 73 -181 117
-76 43 -285 130 -302 127 -4 -1 -15 0 -23 3 -21 8 -99 27 -135 33 -16 3 -40 7
-52 9 -41 9 -300 25 -306 20z m244 -760 c6 -3 25 -8 42 -11 79 -11 214 -68
302 -127 159 -106 276 -265 319 -432 24 -92 26 -113 26 -214 0 -97 -3 -124
-22 -195 -6 -22 -11 -44 -12 -50 -4 -23 -59 -133 -90 -180 -37 -54 -113 -135
-165 -175 -49 -38 -194 -120 -212 -120 -8 0 -19 -4 -25 -9 -8 -8 -81 -30 -159
-48 -243 -55 -551 21 -753 185 -145 117 -232 261 -265 436 -27 139 -10 330 39
441 10 22 18 42 18 45 2 12 62 108 90 144 131 166 343 283 566 312 25 4 47 8
48 9 7 6 242 -4 253 -11z"/>
</g>
</svg>
